<svg width="19" height="23" viewBox="0 0 19 23" fill="none" xmlns="http://www.w3.org/2000/svg">
<path d="M15.6433 12.2219C15.6143 9.30845 18.0191 7.9111 18.1266 7.8405C16.7751 5.86439 14.6695 5.59324 13.9201 5.56239C12.1296 5.38053 10.4246 6.61706 9.51625 6.61706C8.60977 6.61706 7.20634 5.58903 5.72157 5.61521C3.76836 5.6442 1.96803 6.75123 0.962909 8.49968C-1.06556 12.0185 0.443986 17.2335 2.42057 20.0894C3.38689 21.4854 4.53927 23.0562 6.05116 22.9987C7.50835 22.9412 8.05812 22.0562 9.81966 22.0562C11.5812 22.0562 12.0758 22.9987 13.6171 22.9692C15.1842 22.9407 16.1776 21.5466 17.136 20.1451C18.2454 18.5233 18.7021 16.953 18.7292 16.8735C18.6951 16.8576 15.6746 15.7005 15.6433 12.2219Z" fill="white"/>
<path d="M12.7473 3.6722C13.549 2.69887 14.0922 1.34639 13.9445 0C12.7875 0.0467498 11.3868 0.769034 10.5561 1.74143C9.81183 2.60443 9.16108 3.97841 9.33545 5.30049C10.6262 5.40054 11.9427 4.64366 12.7473 3.6722Z" fill="white"/>
</svg>
