<svg width="34" height="24" viewBox="0 0 34 24" fill="none" xmlns="http://www.w3.org/2000/svg">
<path d="M28.764 3.00058C28.764 3.00058 25.2961 0.309338 21.1929 0L20.8284 0.732099C24.5359 1.62918 26.2334 2.91809 28.0142 4.49571C24.9524 2.94902 21.9219 1.49513 16.6523 1.49513C11.3827 1.49513 8.35219 2.94902 5.29041 4.49571C7.07124 2.91809 9.09159 1.48482 12.4762 0.732099L12.1117 0C7.81065 0.402139 4.54059 3.00058 4.54059 3.00058C4.54059 3.00058 0.666509 8.56866 0 19.4986C3.90532 23.9634 9.84142 23.9943 9.84142 23.9943L11.0807 22.3548C8.97704 21.633 6.59219 20.3338 4.54059 17.9932C6.98793 19.8286 10.6954 21.7465 16.6627 21.7465C22.6301 21.7465 26.3271 19.8389 28.7848 17.9932C26.7332 20.3338 24.3484 21.633 22.2447 22.3548L23.484 23.9943C23.484 23.9943 29.4201 23.9634 33.3254 19.4986C32.6381 8.56866 28.764 3.00058 28.764 3.00058ZM11.716 16.498C10.2476 16.498 9.06035 15.1576 9.06035 13.4974C9.06035 11.8373 10.2476 10.4969 11.716 10.4969C13.1844 10.4969 14.3716 11.8373 14.3716 13.4974C14.3716 15.1576 13.1844 16.498 11.716 16.498ZM21.5678 16.498C20.0994 16.498 18.9122 15.1576 18.9122 13.4974C18.9122 11.8373 20.0994 10.4969 21.5678 10.4969C23.0362 10.4969 24.2234 11.8373 24.2234 13.4974C24.2234 15.1576 23.0258 16.498 21.5678 16.498Z" fill="white"/>
</svg>
