<svg width="16" height="12" viewBox="0 0 16 12" fill="none" xmlns="http://www.w3.org/2000/svg">
<path d="M1.2 12C0.88 12 0.6 11.8875 0.36 11.6625C0.12 11.4375 0 11.175 0 10.875V1.125C0 0.825 0.12 0.5625 0.36 0.3375C0.6 0.1125 0.88 0 1.2 0H14.8C15.12 0 15.4 0.1125 15.64 0.3375C15.88 0.5625 16 0.825 16 1.125V10.875C16 11.175 15.88 11.4375 15.64 11.6625C15.4 11.8875 15.12 12 14.8 12H1.2ZM8 6.225C8.06667 6.225 8.12333 6.21562 8.17 6.19687C8.21667 6.17812 8.26667 6.15625 8.32 6.13125L14.6 2.2875C14.6667 2.25 14.7167 2.2 14.75 2.1375C14.7833 2.075 14.8 2.00625 14.8 1.93125C14.8 1.76875 14.7233 1.64062 14.57 1.54688C14.4167 1.45312 14.26 1.45625 14.1 1.55625L8 5.2125L1.92 1.55625C1.76 1.45625 1.6 1.45 1.44 1.5375C1.28 1.625 1.2 1.75 1.2 1.9125C1.2 1.9875 1.22 2.05938 1.26 2.12813C1.3 2.19688 1.34667 2.25 1.4 2.2875L7.68 6.13125C7.73333 6.15625 7.78333 6.17812 7.83 6.19687C7.87667 6.21562 7.93333 6.225 8 6.225Z" fill="white"/>
</svg>
