<svg width="50" height="50" viewBox="0 0 50 50" fill="none" xmlns="http://www.w3.org/2000/svg">
    <path d="M24.9845 12.062C17.9173 12.062 12.0615 17.8168 12.0615 24.985C12.0615 32.1533 17.8163 37.908 24.9845 37.908C32.1528 37.908 37.9076 32.0523 37.9076 24.985C37.9076 17.9178 32.0518 12.062 24.9845 12.062ZM24.9845 33.2638C20.4413 33.2638 16.7057 29.5283 16.7057 24.985C16.7057 20.4418 20.4413 16.7062 24.9845 16.7062C29.5278 16.7062 33.2633 20.4418 33.2633 24.985C33.2633 29.5283 29.5278 33.2638 24.9845 33.2638Z" fill="white"/>
    <path d="M45.9392 4.1305C43.3199 1.41041 39.5924 0 35.3611 0H14.6079C5.84315 0 0 5.84315 0 14.6079V35.2604C0 39.5924 1.41041 43.3199 4.23125 46.04C6.95133 48.6593 10.5781 49.969 14.7086 49.969H35.2604C39.5924 49.969 43.2192 48.5586 45.8385 46.04C48.5586 43.4206 49.969 39.6931 49.969 35.3611V14.6079C49.969 10.3766 48.5586 6.74984 45.9392 4.1305ZM45.5363 35.3611C45.5363 38.4842 44.4281 41.0028 42.6147 42.7154C40.8013 44.4281 38.2827 45.3348 35.2604 45.3348H14.7086C11.6863 45.3348 9.1677 44.4281 7.35431 42.7154C5.54092 40.902 4.63422 38.3834 4.63422 35.2604V14.6079C4.63422 11.5856 5.54092 9.06695 7.35431 7.25356C9.06695 5.54092 11.6863 4.63422 14.7086 4.63422H35.4619C38.4842 4.63422 41.0028 5.54092 42.8162 7.35431C44.5288 9.1677 45.5363 11.6863 45.5363 14.6079V35.3611Z" fill="white"/>
</svg>
