<svg width="36" height="45" viewBox="0 0 36 45" fill="none" xmlns="http://www.w3.org/2000/svg">
    <mask id="mask0_3426_8392" style="mask-type:alpha" maskUnits="userSpaceOnUse" x="0" y="0" width="36" height="45">
        <path fill-rule="evenodd" clip-rule="evenodd" d="M17.561 8.78049C17.561 3.93116 13.6298 0 8.78049 0C3.93116 0 0 3.93116 0 8.78049V27.2195C0 32.0688 3.93116 36 8.78049 36C8.78049 40.8493 12.7116 44.7805 17.561 44.7805H27.2195C32.0688 44.7805 36 40.8493 36 36C36 31.1507 32.0688 27.2195 27.2195 27.2195H17.561V8.78049Z" fill="#D9D9D9"/>
    </mask>
    <g mask="url(#mask0_3426_8392)">
        <path fill-rule="evenodd" clip-rule="evenodd" d="M17.561 8.78049C17.561 3.93116 13.6298 0 8.78049 0C3.93116 0 0 3.93116 0 8.78049V27.2195C0 32.0688 3.93116 36 8.78049 36C8.78049 40.8493 12.7116 44.7805 17.561 44.7805H27.2195C32.0688 44.7805 36 40.8493 36 36C36 31.1507 32.0688 27.2195 27.2195 27.2195H17.561V8.78049Z" fill="#3F3EDB"/>
        <path d="M27.2195 44.7807C22.3702 44.7807 -2.63415 42.6056 -2.63415 37.7563C-2.63415 34.1475 -10.4256 28.8844 -2.63415 27.6588C0.0442543 27.2374 21.3793 27.2197 27.2195 27.2197C32.0688 27.2197 36 31.1509 36 36.0002C36 40.8495 32.0688 44.7807 27.2195 44.7807Z" fill="url(#paint0_angular_3426_8392)"/>
        <path d="M8.78052 36H26.3415L23.7073 41.2683H8.78052V36Z" fill="url(#paint1_linear_3426_8392)"/>
        <path d="M26.3414 27.2197L8.78045 27.2197L8.78046 22.8295L26.3414 22.8295L26.3414 27.2197Z" fill="url(#paint2_linear_3426_8392)"/>
        <path d="M17.561 8.78049C17.561 13.6298 21.5323 26.7805 16.6829 26.7805C13.0742 26.7805 0.786645 40.2793 -0.439015 32.4878C-0.860348 29.8094 2.0504e-05 14.6207 2.0206e-05 8.78049C2.0206e-05 3.93116 3.93118 0 8.78051 0C13.6298 0 17.561 3.93116 17.561 8.78049Z" fill="url(#paint3_angular_3426_8392)"/>
        <rect y="8.78027" width="8.78049" height="29.8537" fill="url(#paint4_linear_3426_8392)"/>
        <rect x="27.2195" y="27.2197" width="8.78049" height="27.2195" transform="rotate(90 27.2195 27.2197)" fill="url(#paint5_linear_3426_8392)"/>
        <mask id="path-9-inside-1_3426_8392" fill="white">
            <path fill-rule="evenodd" clip-rule="evenodd" d="M17.561 8.78049C17.561 3.93116 13.6298 0 8.78049 0C4.2275 0 0.483892 3.46538 0.0433539 7.90244H0V8.78049V27.2195C0 32.0688 3.93116 36 8.78049 36C8.78049 40.8493 12.7116 44.7805 17.561 44.7805H27.2195C32.0688 44.7805 36 40.8493 36 36C36 31.1507 32.0688 27.2195 27.2195 27.2195H17.561V8.78049Z"/>
        </mask>
        <path d="M0.0433539 7.90244V8.90244H0.948985L1.03846 8.00124L0.0433539 7.90244ZM0 7.90244V6.90244H-1V7.90244H0ZM8.78049 36H9.78049V35H8.78049V36ZM17.561 27.2195H16.561V28.2195H17.561V27.2195ZM8.78049 1C13.0775 1 16.561 4.48344 16.561 8.78049H18.561C18.561 3.37887 14.1821 -1 8.78049 -1V1ZM1.03846 8.00124C1.42872 4.07058 4.74664 1 8.78049 1V-1C3.70836 -1 -0.460936 2.86017 -0.951753 7.80364L1.03846 8.00124ZM0 8.90244H0.0433539V6.90244H0V8.90244ZM1 8.78049V7.90244H-1V8.78049H1ZM1 27.2195V8.78049H-1V27.2195H1ZM8.78049 35C4.48344 35 1 31.5166 1 27.2195H-1C-1 32.6211 3.37887 37 8.78049 37V35ZM17.561 43.7805C13.2639 43.7805 9.78049 40.297 9.78049 36H7.78049C7.78049 41.4016 12.1594 45.7805 17.561 45.7805V43.7805ZM27.2195 43.7805H17.561V45.7805H27.2195V43.7805ZM35 36C35 40.297 31.5166 43.7805 27.2195 43.7805V45.7805C32.6211 45.7805 37 41.4016 37 36H35ZM27.2195 28.2195C31.5166 28.2195 35 31.703 35 36H37C37 30.5984 32.6211 26.2195 27.2195 26.2195V28.2195ZM17.561 28.2195H27.2195V26.2195H17.561V28.2195ZM16.561 8.78049V27.2195H18.561V8.78049H16.561Z" fill="url(#paint6_linear_3426_8392)" mask="url(#path-9-inside-1_3426_8392)"/>
        <mask id="path-11-inside-2_3426_8392" fill="white">
            <path fill-rule="evenodd" clip-rule="evenodd" d="M17.561 8.78049C17.561 3.93116 13.6298 0 8.78049 0C4.2275 0 0.483892 3.46538 0.0433539 7.90244H0V8.78049V27.2195C0 32.0688 3.93116 36 8.78049 36C8.78049 40.8493 12.7116 44.7805 17.561 44.7805H27.2195C32.0688 44.7805 36 40.8493 36 36C36 31.1507 32.0688 27.2195 27.2195 27.2195H17.561V8.78049Z"/>
        </mask>
        <path d="M0.0433539 7.90244V9.40244H1.4018L1.53601 8.05064L0.0433539 7.90244ZM0 7.90244V6.40244H-1.5V7.90244H0ZM8.78049 36H10.2805V34.5H8.78049V36ZM17.561 27.2195H16.061V28.7195H17.561V27.2195ZM8.78049 1.5C12.8014 1.5 16.061 4.75959 16.061 8.78049H19.061C19.061 3.10273 14.4582 -1.5 8.78049 -1.5V1.5ZM1.53601 8.05064C1.90114 4.37318 5.00621 1.5 8.78049 1.5V-1.5C3.44879 -1.5 -0.933351 2.55757 -1.44931 7.75424L1.53601 8.05064ZM0 9.40244H0.0433539V6.40244H0V9.40244ZM1.5 8.78049V7.90244H-1.5V8.78049H1.5ZM1.5 27.2195V8.78049H-1.5V27.2195H1.5ZM8.78049 34.5C4.75959 34.5 1.5 31.2404 1.5 27.2195H-1.5C-1.5 32.8973 3.10273 37.5 8.78049 37.5V34.5ZM17.561 43.2805C13.5401 43.2805 10.2805 40.0209 10.2805 36H7.28049C7.28049 41.6778 11.8832 46.2805 17.561 46.2805V43.2805ZM27.2195 43.2805H17.561V46.2805H27.2195V43.2805ZM34.5 36C34.5 40.0209 31.2404 43.2805 27.2195 43.2805V46.2805C32.8973 46.2805 37.5 41.6778 37.5 36H34.5ZM27.2195 28.7195C31.2404 28.7195 34.5 31.9791 34.5 36H37.5C37.5 30.3222 32.8973 25.7195 27.2195 25.7195V28.7195ZM17.561 28.7195H27.2195V25.7195H17.561V28.7195ZM16.061 8.78049V27.2195H19.061V8.78049H16.061Z" fill="url(#paint7_linear_3426_8392)" mask="url(#path-11-inside-2_3426_8392)"/>
        <path d="M8.78052 27.2197H19.3171V28.0978H8.78052V27.2197Z" fill="url(#paint8_linear_3426_8392)"/>
    </g>
    <defs>
        <radialGradient id="paint0_angular_3426_8392" cx="0" cy="0" r="1" gradientUnits="userSpaceOnUse" gradientTransform="translate(26.3415 36.0002) rotate(-180) scale(9.65854)">
            <stop stop-color="#6C9EFF"/>
            <stop offset="1" stop-color="#3F3EDB" stop-opacity="0"/>
        </radialGradient>
        <linearGradient id="paint1_linear_3426_8392" x1="16.683" y1="36.878" x2="16.683" y2="39.0732" gradientUnits="userSpaceOnUse">
            <stop stop-color="#3332D0"/>
            <stop offset="1" stop-color="#3534D6" stop-opacity="0"/>
        </linearGradient>
        <linearGradient id="paint2_linear_3426_8392" x1="18.439" y1="26.3417" x2="18.439" y2="24.1466" gradientUnits="userSpaceOnUse">
            <stop stop-color="#3332D0"/>
            <stop offset="1" stop-color="#3534D6" stop-opacity="0"/>
        </linearGradient>
        <radialGradient id="paint3_angular_3426_8392" cx="0" cy="0" r="1" gradientUnits="userSpaceOnUse" gradientTransform="translate(8.78051 9.65854) rotate(90) scale(9.65854 9.65853)">
            <stop stop-color="#6C9EFF"/>
            <stop offset="1" stop-color="#3F3EDB" stop-opacity="0"/>
        </radialGradient>
        <linearGradient id="paint4_linear_3426_8392" x1="3.95122" y1="21.073" x2="4.39024" y2="14.0486" gradientUnits="userSpaceOnUse">
            <stop stop-color="#6C9EFF"/>
            <stop offset="1" stop-color="#6C9EFF" stop-opacity="0"/>
        </linearGradient>
        <linearGradient id="paint5_linear_3426_8392" x1="31.6097" y1="46.0332" x2="31.6097" y2="32.0232" gradientUnits="userSpaceOnUse">
            <stop stop-color="#6C9EFF"/>
            <stop offset="1" stop-color="#6DB9FF" stop-opacity="0"/>
        </linearGradient>
        <linearGradient id="paint6_linear_3426_8392" x1="0.878049" y1="1.31707" x2="6.58537" y2="3.51219" gradientUnits="userSpaceOnUse">
            <stop stop-color="#6C9EFF"/>
            <stop offset="1" stop-color="#6C9EFF" stop-opacity="0"/>
        </linearGradient>
        <linearGradient id="paint7_linear_3426_8392" x1="12.7317" y1="43.0244" x2="13.1707" y2="36.439" gradientUnits="userSpaceOnUse">
            <stop stop-color="#3433D1"/>
            <stop offset="0.797632" stop-color="#3433D1" stop-opacity="0"/>
        </linearGradient>
        <linearGradient id="paint8_linear_3426_8392" x1="12.8331" y1="27.2197" x2="18.9119" y2="27.2197" gradientUnits="userSpaceOnUse">
            <stop stop-color="#73A3FF"/>
            <stop offset="1" stop-color="#73A3FF" stop-opacity="0"/>
        </linearGradient>
    </defs>
</svg>
