<svg width="14" height="18" viewBox="0 0 14 18" fill="none" xmlns="http://www.w3.org/2000/svg">
<path d="M1.3125 18C0.947917 18 0.638021 17.875 0.382812 17.625C0.127604 17.375 0 17.0714 0 16.7143V7.41429C0 7.05714 0.127604 6.75357 0.382812 6.50357C0.638021 6.25357 0.947917 6.12857 1.3125 6.12857H2.84375V4.07143C2.84375 2.94286 3.24844 1.98214 4.05781 1.18929C4.86719 0.396429 5.84792 0 7 0C8.15208 0 9.13281 0.396429 9.94219 1.18929C10.7516 1.98214 11.1562 2.94286 11.1562 4.07143V6.12857H12.6875C13.0521 6.12857 13.362 6.25357 13.6172 6.50357C13.8724 6.75357 14 7.05714 14 7.41429V16.7143C14 17.0714 13.8724 17.375 13.6172 17.625C13.362 17.875 13.0521 18 12.6875 18H1.3125ZM4.15625 6.12857H9.84375V4.07143C9.84375 3.3 9.56667 2.64286 9.0125 2.1C8.45833 1.55714 7.7875 1.28571 7 1.28571C6.2125 1.28571 5.54167 1.55714 4.9875 2.1C4.43333 2.64286 4.15625 3.3 4.15625 4.07143V6.12857ZM7 13.7143C7.46667 13.7143 7.86406 13.5571 8.19219 13.2429C8.52031 12.9286 8.68437 12.55 8.68437 12.1071C8.68437 11.6786 8.52031 11.2893 8.19219 10.9393C7.86406 10.5893 7.46667 10.4143 7 10.4143C6.53333 10.4143 6.13594 10.5893 5.80781 10.9393C5.47969 11.2893 5.31562 11.6786 5.31562 12.1071C5.31562 12.55 5.47969 12.9286 5.80781 13.2429C6.13594 13.5571 6.53333 13.7143 7 13.7143Z" fill="white"/>
</svg>
