<svg width="64" height="64" viewBox="0 0 64 64" fill="none" xmlns="http://www.w3.org/2000/svg">
<path fill-rule="evenodd" clip-rule="evenodd" d="M10 0C4.47715 0 0 4.47715 0 10V54C0 59.5228 4.47715 64 10 64H54C59.5228 64 64 59.5228 64 54V10C64 4.47715 59.5228 0 54 0H10ZM34.1083 21.0539H34.1082C34.1081 17.1581 30.9499 14 27.0541 14C23.1597 14 20.0024 17.1558 20 21.0496V21.0541V35.8676V35.8719C20.0023 39.579 22.8641 42.6172 26.4991 42.9001H26.5H41.5032C41.8345 42.9001 42.1032 43.1688 42.1032 43.5001C42.1032 43.8315 41.8345 44.1001 41.5032 44.1001H27.1521C27.7129 47.4352 30.6138 49.9761 34.1083 49.9761L34.1528 49.9759H41.8233L41.8678 49.9761C45.7637 49.9761 48.9219 46.8178 48.9219 42.922C48.9219 39.0669 45.8294 35.9341 41.9899 35.8689H29.0496C27.6136 35.8689 26.4496 34.7049 26.4496 33.2689V20.8682C26.4496 20.5369 26.7182 20.2682 27.0496 20.2682C27.3809 20.2682 27.6496 20.5369 27.6496 20.8682V33.2689C27.6496 34.0421 28.2764 34.6689 29.0496 34.6689H34.1083V21.0539Z" fill="#494552"/>
</svg>
