<svg width="31" height="25" viewBox="0 0 31 25" fill="none" xmlns="http://www.w3.org/2000/svg">
<path fill-rule="evenodd" clip-rule="evenodd" d="M27.6048 7.04189C27.6048 15.3795 21.2567 25 9.6466 25C6.0864 25 2.76182 23.9529 0 22.1467C0.49737 22.212 0.99474 22.2383 1.50523 22.2383C4.46342 22.2383 7.18589 21.2304 9.3456 19.5418C6.58377 19.4896 4.25393 17.6701 3.45556 15.157C3.84819 15.2356 4.24082 15.2749 4.64667 15.2749C5.22254 15.2749 5.7854 15.1963 6.3089 15.0524C3.4162 14.4633 1.24348 11.9241 1.24348 8.86124V8.78274C2.09422 9.25387 3.06283 9.54186 4.09692 9.568C2.39533 8.44238 1.28273 6.50517 1.28273 4.31932C1.28273 3.16747 1.59685 2.0811 2.13358 1.15175C5.24868 4.9738 9.89534 7.48689 15.144 7.74864C15.0263 7.29053 14.9739 6.80627 14.9739 6.3089C14.9739 2.82721 17.8011 0 21.2828 0C23.1021 0 24.7383 0.759121 25.8901 1.98948C27.3299 1.70149 28.6781 1.17799 29.8954 0.458117C29.4242 1.93711 28.4294 3.16747 27.1205 3.95283C28.4032 3.79582 29.6205 3.45546 30.7461 2.95809C29.8954 4.2277 28.8221 5.3403 27.5917 6.2303C27.6048 6.49207 27.6048 6.76686 27.6048 7.04165V7.04189Z" fill="white"/>
</svg>
