<svg width="17" height="17" viewBox="0 0 17 17" fill="none" xmlns="http://www.w3.org/2000/svg">
<path d="M3.0175 13.2812C3.91 12.7146 4.79188 12.286 5.66313 11.9956C6.53438 11.7052 7.48 11.56 8.5 11.56C9.52 11.56 10.4692 11.7052 11.3475 11.9956C12.2258 12.286 13.1113 12.7146 14.0038 13.2812C14.6271 12.5162 15.0698 11.7442 15.3319 10.965C15.594 10.1858 15.725 9.36417 15.725 8.5C15.725 6.44583 15.0344 4.72813 13.6531 3.34688C12.2719 1.96563 10.5542 1.275 8.5 1.275C6.44583 1.275 4.72813 1.96563 3.34688 3.34688C1.96563 4.72813 1.275 6.44583 1.275 8.5C1.275 9.36417 1.40958 10.1858 1.67875 10.965C1.94792 11.7442 2.39417 12.5162 3.0175 13.2812ZM8.5 9.1375C7.67833 9.1375 6.98771 8.85771 6.42813 8.29813C5.86854 7.73854 5.58875 7.04792 5.58875 6.22625C5.58875 5.40458 5.86854 4.71396 6.42813 4.15438C6.98771 3.59479 7.67833 3.315 8.5 3.315C9.32167 3.315 10.0123 3.59479 10.5719 4.15438C11.1315 4.71396 11.4113 5.40458 11.4113 6.22625C11.4113 7.04792 11.1315 7.73854 10.5719 8.29813C10.0123 8.85771 9.32167 9.1375 8.5 9.1375ZM8.5 17C7.31 17 6.19792 16.7769 5.16375 16.3306C4.12958 15.8844 3.23 15.2752 2.465 14.5031C1.7 13.731 1.09792 12.8279 0.65875 11.7938C0.219583 10.7596 0 9.65458 0 8.47875C0 7.31708 0.223125 6.21917 0.669375 5.185C1.11562 4.15083 1.72479 3.25125 2.49688 2.48625C3.26896 1.72125 4.17208 1.11562 5.20625 0.669375C6.24042 0.223125 7.34542 0 8.52125 0C9.68292 0 10.7808 0.223125 11.815 0.669375C12.8492 1.11562 13.7488 1.72125 14.5138 2.48625C15.2788 3.25125 15.8844 4.15083 16.3306 5.185C16.7769 6.21917 17 7.32417 17 8.5C17 9.66167 16.7769 10.7596 16.3306 11.7938C15.8844 12.8279 15.2788 13.731 14.5138 14.5031C13.7488 15.2752 12.8492 15.8844 11.815 16.3306C10.7808 16.7769 9.67583 17 8.5 17Z" fill="white"/>
</svg>
